<mxfile host="app.diagrams.net" modified="2022-06-05T18:13:16.134Z" agent="5.0 (Macintosh; Intel Mac OS X 10_15_7) AppleWebKit/537.36 (KHTML, like Gecko) Chrome/91.0.4472.114 Safari/537.36" etag="xe88ycLsijnJUn9F3m7J" version="19.0.0" type="github">
  <diagram id="wnJz8kT59XUkkc-jXowL" name="Page-1">
    <mxGraphModel dx="2486" dy="1523" grid="1" gridSize="10" guides="1" tooltips="1" connect="1" arrows="1" fold="1" page="1" pageScale="1" pageWidth="850" pageHeight="1100" math="0" shadow="0">
      <root>
        <mxCell id="0" />
        <mxCell id="1" parent="0" />
        <mxCell id="TK6GQKs6KiTJpRCqTcl0-30" value="" style="endArrow=classic;html=1;rounded=0;exitX=0;exitY=0.5;exitDx=0;exitDy=0;edgeStyle=orthogonalEdgeStyle;" parent="1" source="TK6GQKs6KiTJpRCqTcl0-19" target="TK6GQKs6KiTJpRCqTcl0-28" edge="1">
          <mxGeometry width="50" height="50" relative="1" as="geometry">
            <mxPoint x="-430" y="245" as="sourcePoint" />
            <mxPoint x="-542" y="305.8211920529802" as="targetPoint" />
          </mxGeometry>
        </mxCell>
        <mxCell id="rPZJrspDgpY_ZuYGKmxx-18" value="" style="endArrow=classic;html=1;rounded=0;entryX=0.25;entryY=0;entryDx=0;entryDy=0;entryPerimeter=0;edgeStyle=orthogonalEdgeStyle;" parent="1" source="sgyjoKGfFcgplxuwhduN-31" target="rPZJrspDgpY_ZuYGKmxx-15" edge="1">
          <mxGeometry width="50" height="50" relative="1" as="geometry">
            <mxPoint x="650" y="250" as="sourcePoint" />
            <mxPoint x="960" y="340" as="targetPoint" />
          </mxGeometry>
        </mxCell>
        <mxCell id="q8Zk_S6X2Y8jFyI1biVI-7" value="" style="endArrow=classic;html=1;exitX=0.5;exitY=0;exitDx=0;exitDy=0;entryX=0.25;entryY=1;entryDx=0;entryDy=0;entryPerimeter=0;edgeStyle=orthogonalEdgeStyle;" parent="1" source="q8Zk_S6X2Y8jFyI1biVI-6" target="sgyjoKGfFcgplxuwhduN-41" edge="1">
          <mxGeometry width="50" height="50" relative="1" as="geometry">
            <mxPoint x="595" y="608" as="sourcePoint" />
            <mxPoint x="640" y="500" as="targetPoint" />
          </mxGeometry>
        </mxCell>
        <mxCell id="sgyjoKGfFcgplxuwhduN-1" value="User App" style="ellipse;shape=cloud;whiteSpace=wrap;html=1;fillColor=#dae8fc;strokeColor=#6c8ebf;" parent="1" vertex="1">
          <mxGeometry x="417" y="-2" width="120" height="80" as="geometry" />
        </mxCell>
        <mxCell id="sgyjoKGfFcgplxuwhduN-2" value="API Gateway ( Customer URLs )" style="rounded=1;whiteSpace=wrap;html=1;fillColor=#f5f5f5;fontColor=#333333;strokeColor=#666666;" parent="1" vertex="1">
          <mxGeometry x="190" y="102" width="620" height="40" as="geometry" />
        </mxCell>
        <mxCell id="sgyjoKGfFcgplxuwhduN-3" value="Search Service" style="rounded=1;whiteSpace=wrap;html=1;fillColor=#fff2cc;strokeColor=#d6b656;" parent="1" vertex="1">
          <mxGeometry x="181" y="199" width="120" height="60" as="geometry" />
        </mxCell>
        <mxCell id="sgyjoKGfFcgplxuwhduN-4" value="" style="endArrow=classic;html=1;rounded=0;exitX=0.082;exitY=1.05;exitDx=0;exitDy=0;exitPerimeter=0;" parent="1" source="sgyjoKGfFcgplxuwhduN-2" target="sgyjoKGfFcgplxuwhduN-3" edge="1">
          <mxGeometry width="50" height="50" relative="1" as="geometry">
            <mxPoint x="470" y="250" as="sourcePoint" />
            <mxPoint x="520" y="200" as="targetPoint" />
          </mxGeometry>
        </mxCell>
        <mxCell id="sgyjoKGfFcgplxuwhduN-5" value="/search/restaurant" style="text;html=1;strokeColor=none;fillColor=none;align=center;verticalAlign=middle;whiteSpace=wrap;rounded=0;" parent="1" vertex="1">
          <mxGeometry x="270" y="160" width="60" height="30" as="geometry" />
        </mxCell>
        <mxCell id="sgyjoKGfFcgplxuwhduN-7" value="" style="endArrow=classic;startArrow=classic;html=1;rounded=0;exitX=0.55;exitY=0.95;exitDx=0;exitDy=0;exitPerimeter=0;entryX=0.473;entryY=0;entryDx=0;entryDy=0;entryPerimeter=0;" parent="1" source="sgyjoKGfFcgplxuwhduN-1" target="sgyjoKGfFcgplxuwhduN-2" edge="1">
          <mxGeometry width="50" height="50" relative="1" as="geometry">
            <mxPoint x="470" y="250" as="sourcePoint" />
            <mxPoint x="520" y="200" as="targetPoint" />
          </mxGeometry>
        </mxCell>
        <mxCell id="sgyjoKGfFcgplxuwhduN-10" value="" style="endArrow=classic;html=1;rounded=0;exitX=0.45;exitY=0.983;exitDx=0;exitDy=0;exitPerimeter=0;" parent="1" source="sgyjoKGfFcgplxuwhduN-3" target="sgyjoKGfFcgplxuwhduN-19" edge="1">
          <mxGeometry width="50" height="50" relative="1" as="geometry">
            <mxPoint x="250.83999999999992" y="154" as="sourcePoint" />
            <mxPoint x="234.5" y="300" as="targetPoint" />
          </mxGeometry>
        </mxCell>
        <mxCell id="sgyjoKGfFcgplxuwhduN-15" value="Catalog Service" style="rounded=1;whiteSpace=wrap;html=1;fillColor=#fff2cc;strokeColor=#d6b656;" parent="1" vertex="1">
          <mxGeometry x="-440" y="205" width="120" height="60" as="geometry" />
        </mxCell>
        <mxCell id="sgyjoKGfFcgplxuwhduN-19" value="&lt;span style=&quot;&quot;&gt;Search Indexes &lt;br&gt;in ElasicSearch&lt;/span&gt;" style="outlineConnect=0;dashed=0;verticalLabelPosition=bottom;verticalAlign=top;align=center;html=1;shape=mxgraph.aws3.elasticsearch_service;fillColor=#F58534;gradientColor=none;" parent="1" vertex="1">
          <mxGeometry x="202.5" y="344.5" width="67.5" height="81" as="geometry" />
        </mxCell>
        <mxCell id="sgyjoKGfFcgplxuwhduN-21" value="&lt;span style=&quot;color: rgb(0, 0, 0);&quot;&gt;Update Search Indexes Topic&lt;/span&gt;" style="sketch=0;points=[[0,0,0],[0.25,0,0],[0.5,0,0],[0.75,0,0],[1,0,0],[0,1,0],[0.25,1,0],[0.5,1,0],[0.75,1,0],[1,1,0],[0,0.25,0],[0,0.5,0],[0,0.75,0],[1,0.25,0],[1,0.5,0],[1,0.75,0]];outlineConnect=0;fontColor=#232F3E;gradientColor=#945DF2;gradientDirection=north;fillColor=#5A30B5;strokeColor=#ffffff;dashed=0;verticalLabelPosition=bottom;verticalAlign=top;align=center;html=1;fontSize=12;fontStyle=0;aspect=fixed;shape=mxgraph.aws4.resourceIcon;resIcon=mxgraph.aws4.managed_streaming_for_kafka;" parent="1" vertex="1">
          <mxGeometry x="-35" y="530" width="78" height="78" as="geometry" />
        </mxCell>
        <mxCell id="sgyjoKGfFcgplxuwhduN-23" value="Cart Service" style="rounded=1;whiteSpace=wrap;html=1;fillColor=#fff2cc;strokeColor=#d6b656;" parent="1" vertex="1">
          <mxGeometry x="369" y="199" width="120" height="60" as="geometry" />
        </mxCell>
        <mxCell id="sgyjoKGfFcgplxuwhduN-25" value="" style="endArrow=classic;html=1;rounded=0;exitX=0.387;exitY=1;exitDx=0;exitDy=0;exitPerimeter=0;entryX=0.5;entryY=0;entryDx=0;entryDy=0;" parent="1" source="sgyjoKGfFcgplxuwhduN-2" target="sgyjoKGfFcgplxuwhduN-23" edge="1">
          <mxGeometry width="50" height="50" relative="1" as="geometry">
            <mxPoint x="260.8399999999999" y="164" as="sourcePoint" />
            <mxPoint x="260.94352941176476" y="219" as="targetPoint" />
          </mxGeometry>
        </mxCell>
        <mxCell id="sgyjoKGfFcgplxuwhduN-26" value="/cart" style="text;html=1;strokeColor=none;fillColor=none;align=center;verticalAlign=middle;whiteSpace=wrap;rounded=0;" parent="1" vertex="1">
          <mxGeometry x="440" y="158" width="60" height="30" as="geometry" />
        </mxCell>
        <mxCell id="sgyjoKGfFcgplxuwhduN-27" value="" style="outlineConnect=0;dashed=0;verticalLabelPosition=bottom;verticalAlign=top;align=center;html=1;shape=mxgraph.aws3.redis;fillColor=#2E73B8;gradientColor=none;" parent="1" vertex="1">
          <mxGeometry x="395" y="318" width="60" height="63" as="geometry" />
        </mxCell>
        <mxCell id="sgyjoKGfFcgplxuwhduN-28" value="" style="endArrow=classic;html=1;rounded=0;" parent="1" target="sgyjoKGfFcgplxuwhduN-27" edge="1">
          <mxGeometry width="50" height="50" relative="1" as="geometry">
            <mxPoint x="425" y="260" as="sourcePoint" />
            <mxPoint x="244.36348763936007" y="310" as="targetPoint" />
          </mxGeometry>
        </mxCell>
        <mxCell id="sgyjoKGfFcgplxuwhduN-29" value="&lt;span style=&quot;color: rgb(0, 0, 0);&quot;&gt;Cart DB&lt;/span&gt;" style="sketch=0;outlineConnect=0;fontColor=#232F3E;gradientColor=none;fillColor=#2E27AD;strokeColor=none;dashed=0;verticalLabelPosition=bottom;verticalAlign=top;align=center;html=1;fontSize=12;fontStyle=0;aspect=fixed;pointerEvents=1;shape=mxgraph.aws4.rds_postgresql_instance;" parent="1" vertex="1">
          <mxGeometry x="399" y="440" width="50" height="50" as="geometry" />
        </mxCell>
        <mxCell id="sgyjoKGfFcgplxuwhduN-30" value="" style="endArrow=classic;html=1;rounded=0;exitX=0.5;exitY=1;exitDx=0;exitDy=0;exitPerimeter=0;" parent="1" source="sgyjoKGfFcgplxuwhduN-27" target="sgyjoKGfFcgplxuwhduN-29" edge="1">
          <mxGeometry width="50" height="50" relative="1" as="geometry">
            <mxPoint x="440" y="400" as="sourcePoint" />
            <mxPoint x="490" y="350" as="targetPoint" />
          </mxGeometry>
        </mxCell>
        <mxCell id="sgyjoKGfFcgplxuwhduN-31" value="Order Service" style="rounded=1;whiteSpace=wrap;html=1;fillColor=#fff2cc;strokeColor=#d6b656;" parent="1" vertex="1">
          <mxGeometry x="537" y="197" width="120" height="60" as="geometry" />
        </mxCell>
        <mxCell id="sgyjoKGfFcgplxuwhduN-32" value="" style="endArrow=classic;html=1;rounded=0;exitX=0.656;exitY=1.05;exitDx=0;exitDy=0;exitPerimeter=0;entryX=0.5;entryY=0;entryDx=0;entryDy=0;" parent="1" source="sgyjoKGfFcgplxuwhduN-2" target="sgyjoKGfFcgplxuwhduN-31" edge="1">
          <mxGeometry width="50" height="50" relative="1" as="geometry">
            <mxPoint x="439.94000000000005" y="152" as="sourcePoint" />
            <mxPoint x="439" y="209" as="targetPoint" />
          </mxGeometry>
        </mxCell>
        <mxCell id="sgyjoKGfFcgplxuwhduN-33" value="/order/place" style="text;html=1;strokeColor=none;fillColor=none;align=center;verticalAlign=middle;whiteSpace=wrap;rounded=0;" parent="1" vertex="1">
          <mxGeometry x="610" y="158" width="60" height="30" as="geometry" />
        </mxCell>
        <mxCell id="sgyjoKGfFcgplxuwhduN-34" value="Order DB" style="sketch=0;outlineConnect=0;fontColor=#232F3E;gradientColor=none;fillColor=#2E27AD;strokeColor=none;dashed=0;verticalLabelPosition=bottom;verticalAlign=top;align=center;html=1;fontSize=12;fontStyle=0;aspect=fixed;pointerEvents=1;shape=mxgraph.aws4.rds_postgresql_instance;" parent="1" vertex="1">
          <mxGeometry x="990" y="381" width="60" height="60" as="geometry" />
        </mxCell>
        <mxCell id="sgyjoKGfFcgplxuwhduN-37" value="" style="endArrow=classic;html=1;rounded=0;exitX=1;exitY=0.5;exitDx=0;exitDy=0;entryX=0.575;entryY=-0.05;entryDx=0;entryDy=0;entryPerimeter=0;edgeStyle=orthogonalEdgeStyle;" parent="1" source="sgyjoKGfFcgplxuwhduN-2" target="sgyjoKGfFcgplxuwhduN-38" edge="1">
          <mxGeometry width="50" height="50" relative="1" as="geometry">
            <mxPoint x="560" y="380" as="sourcePoint" />
            <mxPoint x="790" y="200" as="targetPoint" />
          </mxGeometry>
        </mxCell>
        <mxCell id="sgyjoKGfFcgplxuwhduN-38" value="Get Orders" style="rounded=1;whiteSpace=wrap;html=1;fillColor=#fff2cc;strokeColor=#d6b656;" parent="1" vertex="1">
          <mxGeometry x="950" y="145" width="120" height="60" as="geometry" />
        </mxCell>
        <mxCell id="sgyjoKGfFcgplxuwhduN-41" value="Order Creation&lt;br&gt;Topic" style="sketch=0;points=[[0,0,0],[0.25,0,0],[0.5,0,0],[0.75,0,0],[1,0,0],[0,1,0],[0.25,1,0],[0.5,1,0],[0.75,1,0],[1,1,0],[0,0.25,0],[0,0.5,0],[0,0.75,0],[1,0.25,0],[1,0.5,0],[1,0.75,0]];outlineConnect=0;fontColor=#232F3E;gradientColor=#945DF2;gradientDirection=north;fillColor=#5A30B5;strokeColor=#ffffff;dashed=0;verticalLabelPosition=bottom;verticalAlign=top;align=center;html=1;fontSize=12;fontStyle=0;aspect=fixed;shape=mxgraph.aws4.resourceIcon;resIcon=mxgraph.aws4.managed_streaming_for_kafka;" parent="1" vertex="1">
          <mxGeometry x="548" y="358" width="78" height="78" as="geometry" />
        </mxCell>
        <mxCell id="sgyjoKGfFcgplxuwhduN-42" value="" style="endArrow=classic;html=1;rounded=0;entryX=0.25;entryY=0;entryDx=0;entryDy=0;entryPerimeter=0;exitX=0.25;exitY=1;exitDx=0;exitDy=0;" parent="1" source="sgyjoKGfFcgplxuwhduN-31" target="sgyjoKGfFcgplxuwhduN-41" edge="1">
          <mxGeometry width="50" height="50" relative="1" as="geometry">
            <mxPoint x="550" y="250" as="sourcePoint" />
            <mxPoint x="630" y="360" as="targetPoint" />
          </mxGeometry>
        </mxCell>
        <mxCell id="sgyjoKGfFcgplxuwhduN-46" value="Payment Service" style="rounded=1;whiteSpace=wrap;html=1;fillColor=#fff2cc;strokeColor=#d6b656;" parent="1" vertex="1">
          <mxGeometry x="676" y="197" width="120" height="60" as="geometry" />
        </mxCell>
        <mxCell id="sgyjoKGfFcgplxuwhduN-48" value="/payment" style="text;html=1;strokeColor=none;fillColor=none;align=center;verticalAlign=middle;whiteSpace=wrap;rounded=0;" parent="1" vertex="1">
          <mxGeometry x="760" y="150" width="60" height="30" as="geometry" />
        </mxCell>
        <mxCell id="sgyjoKGfFcgplxuwhduN-49" value="" style="endArrow=classic;html=1;rounded=0;exitX=0.879;exitY=1.05;exitDx=0;exitDy=0;exitPerimeter=0;" parent="1" source="sgyjoKGfFcgplxuwhduN-2" target="sgyjoKGfFcgplxuwhduN-46" edge="1">
          <mxGeometry width="50" height="50" relative="1" as="geometry">
            <mxPoint x="606.7200000000003" y="154" as="sourcePoint" />
            <mxPoint x="607" y="207" as="targetPoint" />
          </mxGeometry>
        </mxCell>
        <mxCell id="sgyjoKGfFcgplxuwhduN-51" value="Notification Management ( AWS Infra - SMS, Firebase - PushNotification etc. )" style="rounded=1;whiteSpace=wrap;html=1;fillColor=#fff2cc;strokeColor=#d6b656;" parent="1" vertex="1">
          <mxGeometry x="630" y="804" width="294" height="90" as="geometry" />
        </mxCell>
        <mxCell id="sgyjoKGfFcgplxuwhduN-55" value="Delivery Management" style="rounded=1;whiteSpace=wrap;html=1;fillColor=#fff2cc;strokeColor=#d6b656;" parent="1" vertex="1">
          <mxGeometry x="1082" y="562" width="90" height="54" as="geometry" />
        </mxCell>
        <mxCell id="sgyjoKGfFcgplxuwhduN-56" value="" style="endArrow=classic;html=1;rounded=0;exitX=0;exitY=0.5;exitDx=0;exitDy=0;entryX=1;entryY=1;entryDx=0;entryDy=0;entryPerimeter=0;edgeStyle=orthogonalEdgeStyle;" parent="1" source="sgyjoKGfFcgplxuwhduN-55" target="rPZJrspDgpY_ZuYGKmxx-3" edge="1">
          <mxGeometry width="50" height="50" relative="1" as="geometry">
            <mxPoint x="1030" y="550" as="sourcePoint" />
            <mxPoint x="882" y="569" as="targetPoint" />
          </mxGeometry>
        </mxCell>
        <object label="" id="sgyjoKGfFcgplxuwhduN-58">
          <mxCell style="sketch=0;outlineConnect=0;fontColor=#232F3E;gradientColor=none;fillColor=#2E27AD;strokeColor=none;dashed=0;verticalLabelPosition=bottom;verticalAlign=top;align=center;html=1;fontSize=12;fontStyle=0;aspect=fixed;pointerEvents=1;shape=mxgraph.aws4.rds_postgresql_instance;" parent="1" vertex="1">
            <mxGeometry x="1077" y="723" width="57" height="57" as="geometry" />
          </mxCell>
        </object>
        <mxCell id="sgyjoKGfFcgplxuwhduN-59" value="" style="endArrow=classic;html=1;rounded=0;exitX=0.25;exitY=1;exitDx=0;exitDy=0;" parent="1" source="sgyjoKGfFcgplxuwhduN-55" target="sgyjoKGfFcgplxuwhduN-58" edge="1">
          <mxGeometry width="50" height="50" relative="1" as="geometry">
            <mxPoint x="930" y="660" as="sourcePoint" />
            <mxPoint x="980" y="610" as="targetPoint" />
          </mxGeometry>
        </mxCell>
        <mxCell id="q8Zk_S6X2Y8jFyI1biVI-2" value="Redis" style="text;html=1;strokeColor=none;fillColor=none;align=center;verticalAlign=middle;whiteSpace=wrap;rounded=0;" parent="1" vertex="1">
          <mxGeometry x="440" y="370" width="60" height="30" as="geometry" />
        </mxCell>
        <mxCell id="q8Zk_S6X2Y8jFyI1biVI-4" value="/order/orderId or /orders/userid" style="text;html=1;strokeColor=none;fillColor=none;align=center;verticalAlign=middle;whiteSpace=wrap;rounded=0;" parent="1" vertex="1">
          <mxGeometry x="864" y="80" width="60" height="30" as="geometry" />
        </mxCell>
        <mxCell id="q8Zk_S6X2Y8jFyI1biVI-6" value="Recommendation Engine" style="rounded=1;whiteSpace=wrap;html=1;fillColor=#fff2cc;strokeColor=#d6b656;" parent="1" vertex="1">
          <mxGeometry x="235" y="656" width="294" height="90" as="geometry" />
        </mxCell>
        <mxCell id="q8Zk_S6X2Y8jFyI1biVI-8" value="Notification Service" style="rounded=1;whiteSpace=wrap;html=1;fillColor=#fff2cc;strokeColor=#d6b656;" parent="1" vertex="1">
          <mxGeometry x="676" y="690" width="120" height="60" as="geometry" />
        </mxCell>
        <mxCell id="q8Zk_S6X2Y8jFyI1biVI-9" value="" style="endArrow=classic;html=1;curved=1;exitX=0.592;exitY=-0.017;exitDx=0;exitDy=0;entryX=0.25;entryY=1;entryDx=0;entryDy=0;entryPerimeter=0;exitPerimeter=0;" parent="1" source="q8Zk_S6X2Y8jFyI1biVI-8" target="rPZJrspDgpY_ZuYGKmxx-3" edge="1">
          <mxGeometry width="50" height="50" relative="1" as="geometry">
            <mxPoint x="630" y="720" as="sourcePoint" />
            <mxPoint x="843" y="608" as="targetPoint" />
          </mxGeometry>
        </mxCell>
        <mxCell id="q8Zk_S6X2Y8jFyI1biVI-10" value="" style="endArrow=classic;html=1;curved=1;exitX=0.442;exitY=1;exitDx=0;exitDy=0;exitPerimeter=0;entryX=0.34;entryY=0.067;entryDx=0;entryDy=0;entryPerimeter=0;" parent="1" source="q8Zk_S6X2Y8jFyI1biVI-8" target="sgyjoKGfFcgplxuwhduN-51" edge="1">
          <mxGeometry width="50" height="50" relative="1" as="geometry">
            <mxPoint x="757" y="700" as="sourcePoint" />
            <mxPoint x="890" y="750" as="targetPoint" />
          </mxGeometry>
        </mxCell>
        <mxCell id="q8Zk_S6X2Y8jFyI1biVI-12" value="&lt;span style=&quot;&quot;&gt;Notifications MongoDB&lt;/span&gt;" style="dashed=0;outlineConnect=0;html=1;align=center;labelPosition=center;verticalLabelPosition=bottom;verticalAlign=top;shape=mxgraph.webicons.mongodb;gradientColor=#DFDEDE" parent="1" vertex="1">
          <mxGeometry x="850" y="721.5" width="64.2" height="50" as="geometry" />
        </mxCell>
        <mxCell id="q8Zk_S6X2Y8jFyI1biVI-13" value="" style="endArrow=classic;html=1;curved=1;exitX=1;exitY=0.5;exitDx=0;exitDy=0;" parent="1" source="q8Zk_S6X2Y8jFyI1biVI-8" target="q8Zk_S6X2Y8jFyI1biVI-12" edge="1">
          <mxGeometry width="50" height="50" relative="1" as="geometry">
            <mxPoint x="630" y="770" as="sourcePoint" />
            <mxPoint x="680" y="720" as="targetPoint" />
          </mxGeometry>
        </mxCell>
        <mxCell id="q8Zk_S6X2Y8jFyI1biVI-15" value="Payment DB" style="sketch=0;outlineConnect=0;fontColor=#232F3E;gradientColor=none;fillColor=#2E27AD;strokeColor=none;dashed=0;verticalLabelPosition=bottom;verticalAlign=top;align=center;html=1;fontSize=12;fontStyle=0;aspect=fixed;pointerEvents=1;shape=mxgraph.aws4.rds_postgresql_instance;" parent="1" vertex="1">
          <mxGeometry x="775" y="340" width="30" height="30" as="geometry" />
        </mxCell>
        <mxCell id="q8Zk_S6X2Y8jFyI1biVI-17" value="" style="endArrow=classic;html=1;curved=1;exitX=0.942;exitY=1;exitDx=0;exitDy=0;exitPerimeter=0;" parent="1" source="sgyjoKGfFcgplxuwhduN-46" target="q8Zk_S6X2Y8jFyI1biVI-15" edge="1">
          <mxGeometry width="50" height="50" relative="1" as="geometry">
            <mxPoint x="690" y="360" as="sourcePoint" />
            <mxPoint x="740" y="310" as="targetPoint" />
          </mxGeometry>
        </mxCell>
        <mxCell id="q8Zk_S6X2Y8jFyI1biVI-18" value="Shipment DB" style="text;html=1;strokeColor=none;fillColor=none;align=center;verticalAlign=middle;whiteSpace=wrap;rounded=0;" parent="1" vertex="1">
          <mxGeometry x="1071" y="785" width="60" height="30" as="geometry" />
        </mxCell>
        <mxCell id="q8Zk_S6X2Y8jFyI1biVI-19" value="" style="verticalLabelPosition=bottom;verticalAlign=top;html=1;shadow=0;dashed=0;strokeWidth=1;shape=mxgraph.android.phone2;strokeColor=#c0c0c0;" parent="1" vertex="1">
          <mxGeometry x="652" y="934" width="38" height="86" as="geometry" />
        </mxCell>
        <mxCell id="q8Zk_S6X2Y8jFyI1biVI-20" value="Mobile" style="text;html=1;align=center;verticalAlign=middle;resizable=0;points=[];autosize=1;strokeColor=none;fillColor=none;" parent="1" vertex="1">
          <mxGeometry x="647" y="1030" width="50" height="20" as="geometry" />
        </mxCell>
        <mxCell id="q8Zk_S6X2Y8jFyI1biVI-21" value="" style="html=1;verticalLabelPosition=bottom;align=center;labelBackgroundColor=#ffffff;verticalAlign=top;strokeWidth=2;strokeColor=#0080F0;shadow=0;dashed=0;shape=mxgraph.ios7.icons.mail;" parent="1" vertex="1">
          <mxGeometry x="836" y="970" width="30" height="16.5" as="geometry" />
        </mxCell>
        <mxCell id="q8Zk_S6X2Y8jFyI1biVI-23" value="" style="endArrow=classic;html=1;curved=1;exitX=0.75;exitY=1;exitDx=0;exitDy=0;entryX=0.5;entryY=-0.121;entryDx=0;entryDy=0;entryPerimeter=0;" parent="1" source="sgyjoKGfFcgplxuwhduN-51" target="q8Zk_S6X2Y8jFyI1biVI-21" edge="1">
          <mxGeometry width="50" height="50" relative="1" as="geometry">
            <mxPoint x="713.5" y="904" as="sourcePoint" />
            <mxPoint x="681" y="951.998" as="targetPoint" />
          </mxGeometry>
        </mxCell>
        <mxCell id="q8Zk_S6X2Y8jFyI1biVI-24" value="" style="endArrow=classic;html=1;curved=1;entryX=0.5;entryY=0.081;entryDx=0;entryDy=0;entryPerimeter=0;exitX=0.25;exitY=1;exitDx=0;exitDy=0;" parent="1" source="sgyjoKGfFcgplxuwhduN-51" target="q8Zk_S6X2Y8jFyI1biVI-19" edge="1">
          <mxGeometry width="50" height="50" relative="1" as="geometry">
            <mxPoint x="680" y="890" as="sourcePoint" />
            <mxPoint x="690" y="860" as="targetPoint" />
          </mxGeometry>
        </mxCell>
        <mxCell id="q8Zk_S6X2Y8jFyI1biVI-25" value="" style="rounded=1;whiteSpace=wrap;html=1;fillColor=#f5f5f5;fontColor=#333333;strokeColor=#666666;" parent="1" vertex="1">
          <mxGeometry x="1260" y="560" width="780" height="390" as="geometry" />
        </mxCell>
        <mxCell id="q8Zk_S6X2Y8jFyI1biVI-26" value="Driver Finder Service" style="rounded=1;whiteSpace=wrap;html=1;fillColor=#fff2cc;strokeColor=#d6b656;" parent="1" vertex="1">
          <mxGeometry x="1300" y="590" width="90" height="54" as="geometry" />
        </mxCell>
        <mxCell id="q8Zk_S6X2Y8jFyI1biVI-27" value="" style="endArrow=classic;html=1;exitX=1;exitY=0.25;exitDx=0;exitDy=0;entryX=0;entryY=0.5;entryDx=0;entryDy=0;edgeStyle=orthogonalEdgeStyle;" parent="1" source="sgyjoKGfFcgplxuwhduN-55" target="q8Zk_S6X2Y8jFyI1biVI-26" edge="1">
          <mxGeometry width="50" height="50" relative="1" as="geometry">
            <mxPoint x="1140" y="740" as="sourcePoint" />
            <mxPoint x="1190" y="690" as="targetPoint" />
          </mxGeometry>
        </mxCell>
        <mxCell id="q8Zk_S6X2Y8jFyI1biVI-28" value="Allocate Driver Topic" style="sketch=0;points=[[0,0,0],[0.25,0,0],[0.5,0,0],[0.75,0,0],[1,0,0],[0,1,0],[0.25,1,0],[0.5,1,0],[0.75,1,0],[1,1,0],[0,0.25,0],[0,0.5,0],[0,0.75,0],[1,0.25,0],[1,0.5,0],[1,0.75,0]];outlineConnect=0;fontColor=#232F3E;gradientColor=#945DF2;gradientDirection=north;fillColor=#5A30B5;strokeColor=#ffffff;dashed=0;verticalLabelPosition=bottom;verticalAlign=top;align=center;html=1;fontSize=12;fontStyle=0;aspect=fixed;shape=mxgraph.aws4.resourceIcon;resIcon=mxgraph.aws4.managed_streaming_for_kafka;" parent="1" vertex="1">
          <mxGeometry x="1470" y="578" width="78" height="78" as="geometry" />
        </mxCell>
        <mxCell id="q8Zk_S6X2Y8jFyI1biVI-29" value="" style="endArrow=classic;html=1;curved=1;entryX=0;entryY=0.5;entryDx=0;entryDy=0;entryPerimeter=0;" parent="1" source="q8Zk_S6X2Y8jFyI1biVI-26" target="q8Zk_S6X2Y8jFyI1biVI-28" edge="1">
          <mxGeometry width="50" height="50" relative="1" as="geometry">
            <mxPoint x="1530" y="690" as="sourcePoint" />
            <mxPoint x="1580" y="640" as="targetPoint" />
          </mxGeometry>
        </mxCell>
        <mxCell id="q8Zk_S6X2Y8jFyI1biVI-30" value="Apache Spark/Beam&lt;br&gt;( Map/Reduce Computing Engine )" style="rounded=1;whiteSpace=wrap;html=1;fillColor=#fff2cc;strokeColor=#d6b656;" parent="1" vertex="1">
          <mxGeometry x="1650" y="590" width="120" height="60" as="geometry" />
        </mxCell>
        <mxCell id="q8Zk_S6X2Y8jFyI1biVI-31" value="" style="endArrow=classic;html=1;curved=1;exitX=0;exitY=0.5;exitDx=0;exitDy=0;" parent="1" source="q8Zk_S6X2Y8jFyI1biVI-30" target="q8Zk_S6X2Y8jFyI1biVI-28" edge="1">
          <mxGeometry width="50" height="50" relative="1" as="geometry">
            <mxPoint x="1530" y="690" as="sourcePoint" />
            <mxPoint x="1580" y="640" as="targetPoint" />
          </mxGeometry>
        </mxCell>
        <mxCell id="q8Zk_S6X2Y8jFyI1biVI-32" value="AeroSpike DB" style="strokeWidth=2;html=1;shape=mxgraph.flowchart.database;whiteSpace=wrap;" parent="1" vertex="1">
          <mxGeometry x="1675" y="725" width="70" height="80" as="geometry" />
        </mxCell>
        <mxCell id="q8Zk_S6X2Y8jFyI1biVI-34" value="" style="endArrow=classic;html=1;curved=1;exitX=0.5;exitY=1;exitDx=0;exitDy=0;entryX=0.5;entryY=0;entryDx=0;entryDy=0;entryPerimeter=0;" parent="1" source="q8Zk_S6X2Y8jFyI1biVI-30" target="q8Zk_S6X2Y8jFyI1biVI-32" edge="1">
          <mxGeometry width="50" height="50" relative="1" as="geometry">
            <mxPoint x="1530" y="680" as="sourcePoint" />
            <mxPoint x="1580" y="630" as="targetPoint" />
          </mxGeometry>
        </mxCell>
        <mxCell id="q8Zk_S6X2Y8jFyI1biVI-35" value="Driver Location Topic" style="sketch=0;points=[[0,0,0],[0.25,0,0],[0.5,0,0],[0.75,0,0],[1,0,0],[0,1,0],[0.25,1,0],[0.5,1,0],[0.75,1,0],[1,1,0],[0,0.25,0],[0,0.5,0],[0,0.75,0],[1,0.25,0],[1,0.5,0],[1,0.75,0]];outlineConnect=0;fontColor=#232F3E;gradientColor=#945DF2;gradientDirection=north;fillColor=#5A30B5;strokeColor=#ffffff;dashed=0;verticalLabelPosition=bottom;verticalAlign=top;align=center;html=1;fontSize=12;fontStyle=0;aspect=fixed;shape=mxgraph.aws4.resourceIcon;resIcon=mxgraph.aws4.managed_streaming_for_kafka;" parent="1" vertex="1">
          <mxGeometry x="1473" y="726" width="78" height="78" as="geometry" />
        </mxCell>
        <mxCell id="q8Zk_S6X2Y8jFyI1biVI-38" value="" style="endArrow=classic;html=1;curved=1;exitX=1;exitY=0.5;exitDx=0;exitDy=0;exitPerimeter=0;entryX=0;entryY=0.5;entryDx=0;entryDy=0;entryPerimeter=0;" parent="1" source="q8Zk_S6X2Y8jFyI1biVI-35" target="q8Zk_S6X2Y8jFyI1biVI-32" edge="1">
          <mxGeometry width="50" height="50" relative="1" as="geometry">
            <mxPoint x="1530" y="760" as="sourcePoint" />
            <mxPoint x="1580" y="710" as="targetPoint" />
          </mxGeometry>
        </mxCell>
        <mxCell id="q8Zk_S6X2Y8jFyI1biVI-40" value="Driver Service" style="rounded=1;whiteSpace=wrap;html=1;fillColor=#fff2cc;strokeColor=#d6b656;" parent="1" vertex="1">
          <mxGeometry x="1890" y="592" width="90" height="54" as="geometry" />
        </mxCell>
        <mxCell id="q8Zk_S6X2Y8jFyI1biVI-41" value="" style="endArrow=classic;html=1;curved=1;exitX=1;exitY=0.5;exitDx=0;exitDy=0;entryX=0;entryY=0.5;entryDx=0;entryDy=0;" parent="1" source="q8Zk_S6X2Y8jFyI1biVI-30" target="q8Zk_S6X2Y8jFyI1biVI-40" edge="1">
          <mxGeometry width="50" height="50" relative="1" as="geometry">
            <mxPoint x="1650" y="760" as="sourcePoint" />
            <mxPoint x="1700" y="710" as="targetPoint" />
          </mxGeometry>
        </mxCell>
        <object label="Driver Delivery Database" id="q8Zk_S6X2Y8jFyI1biVI-42">
          <mxCell style="sketch=0;outlineConnect=0;fontColor=#232F3E;gradientColor=none;fillColor=#2E27AD;strokeColor=none;dashed=0;verticalLabelPosition=bottom;verticalAlign=top;align=center;html=1;fontSize=12;fontStyle=0;aspect=fixed;pointerEvents=1;shape=mxgraph.aws4.rds_postgresql_instance;" parent="1" vertex="1">
            <mxGeometry x="1907.5" y="771.5" width="57" height="57" as="geometry" />
          </mxCell>
        </object>
        <mxCell id="q8Zk_S6X2Y8jFyI1biVI-44" value="" style="outlineConnect=0;dashed=0;verticalLabelPosition=bottom;verticalAlign=top;align=center;html=1;shape=mxgraph.aws3.redis;fillColor=#2E73B8;gradientColor=none;" parent="1" vertex="1">
          <mxGeometry x="1909.5" y="675" width="50.5" height="48" as="geometry" />
        </mxCell>
        <mxCell id="q8Zk_S6X2Y8jFyI1biVI-45" value="" style="endArrow=classic;html=1;curved=1;exitX=0.5;exitY=1;exitDx=0;exitDy=0;" parent="1" source="q8Zk_S6X2Y8jFyI1biVI-40" target="q8Zk_S6X2Y8jFyI1biVI-44" edge="1">
          <mxGeometry width="50" height="50" relative="1" as="geometry">
            <mxPoint x="1810" y="780" as="sourcePoint" />
            <mxPoint x="1860" y="730" as="targetPoint" />
          </mxGeometry>
        </mxCell>
        <mxCell id="q8Zk_S6X2Y8jFyI1biVI-46" value="" style="endArrow=classic;html=1;curved=1;" parent="1" source="q8Zk_S6X2Y8jFyI1biVI-44" target="q8Zk_S6X2Y8jFyI1biVI-42" edge="1">
          <mxGeometry width="50" height="50" relative="1" as="geometry">
            <mxPoint x="1948" y="656" as="sourcePoint" />
            <mxPoint x="1946.2216981132074" y="685" as="targetPoint" />
          </mxGeometry>
        </mxCell>
        <mxCell id="q8Zk_S6X2Y8jFyI1biVI-47" value="User App" style="ellipse;shape=cloud;whiteSpace=wrap;html=1;" parent="1" vertex="1">
          <mxGeometry x="1870" y="357" width="120" height="80" as="geometry" />
        </mxCell>
        <mxCell id="q8Zk_S6X2Y8jFyI1biVI-48" value="" style="endArrow=classic;html=1;curved=1;exitX=0.55;exitY=0.95;exitDx=0;exitDy=0;exitPerimeter=0;" parent="1" source="q8Zk_S6X2Y8jFyI1biVI-47" target="q8Zk_S6X2Y8jFyI1biVI-40" edge="1">
          <mxGeometry width="50" height="50" relative="1" as="geometry">
            <mxPoint x="1810" y="620" as="sourcePoint" />
            <mxPoint x="1860" y="570" as="targetPoint" />
          </mxGeometry>
        </mxCell>
        <mxCell id="q8Zk_S6X2Y8jFyI1biVI-49" value="/get-driver-details" style="text;html=1;strokeColor=none;fillColor=none;align=center;verticalAlign=middle;whiteSpace=wrap;rounded=0;" parent="1" vertex="1">
          <mxGeometry x="1940" y="470" width="100" height="50" as="geometry" />
        </mxCell>
        <mxCell id="q8Zk_S6X2Y8jFyI1biVI-50" value="" style="endArrow=classic;html=1;exitX=0;exitY=0;exitDx=0;exitDy=0;edgeStyle=orthogonalEdgeStyle;entryX=1;entryY=0.5;entryDx=0;entryDy=0;entryPerimeter=0;" parent="1" source="q8Zk_S6X2Y8jFyI1biVI-30" target="rPZJrspDgpY_ZuYGKmxx-15" edge="1">
          <mxGeometry width="50" height="50" relative="1" as="geometry">
            <mxPoint x="1530" y="710" as="sourcePoint" />
            <mxPoint x="950" y="490" as="targetPoint" />
          </mxGeometry>
        </mxCell>
        <mxCell id="q8Zk_S6X2Y8jFyI1biVI-51" value="Order Cancellation in case of no driver found" style="text;strokeColor=none;fillColor=none;align=left;verticalAlign=middle;spacingLeft=4;spacingRight=4;overflow=hidden;points=[[0,0.5],[1,0.5]];portConstraint=eastwest;rotatable=0;" parent="1" vertex="1">
          <mxGeometry x="1090" y="460" width="282" height="50" as="geometry" />
        </mxCell>
        <mxCell id="q8Zk_S6X2Y8jFyI1biVI-52" value="Delivery Boy" style="shape=image;html=1;verticalAlign=top;verticalLabelPosition=bottom;labelBackgroundColor=#ffffff;imageAspect=0;aspect=fixed;image=https://cdn4.iconfinder.com/data/icons/ibrandify-basic-essentials-icon-set/512/pen_stroke_sketch_doodle_lineart_88-128.png" parent="1" vertex="1">
          <mxGeometry x="1483" y="970" width="60" height="60" as="geometry" />
        </mxCell>
        <mxCell id="q8Zk_S6X2Y8jFyI1biVI-54" value="" style="endArrow=classic;html=1;exitX=0.5;exitY=0;exitDx=0;exitDy=0;" parent="1" source="q8Zk_S6X2Y8jFyI1biVI-52" target="q8Zk_S6X2Y8jFyI1biVI-35" edge="1">
          <mxGeometry width="50" height="50" relative="1" as="geometry">
            <mxPoint x="1550" y="910" as="sourcePoint" />
            <mxPoint x="1600" y="860" as="targetPoint" />
          </mxGeometry>
        </mxCell>
        <mxCell id="q8Zk_S6X2Y8jFyI1biVI-55" value="Post location using Kafka REST API" style="text;html=1;strokeColor=none;fillColor=none;align=center;verticalAlign=middle;whiteSpace=wrap;rounded=0;" parent="1" vertex="1">
          <mxGeometry x="1520" y="860" width="80" height="60" as="geometry" />
        </mxCell>
        <mxCell id="q8Zk_S6X2Y8jFyI1biVI-56" value="" style="endArrow=classic;html=1;exitX=0.5;exitY=0;exitDx=0;exitDy=0;" parent="1" source="q8Zk_S6X2Y8jFyI1biVI-30" target="q8Zk_S6X2Y8jFyI1biVI-57" edge="1">
          <mxGeometry width="50" height="50" relative="1" as="geometry">
            <mxPoint x="1750" y="500" as="sourcePoint" />
            <mxPoint x="1710" y="590" as="targetPoint" />
          </mxGeometry>
        </mxCell>
        <mxCell id="q8Zk_S6X2Y8jFyI1biVI-57" value="Map Service" style="rounded=1;whiteSpace=wrap;html=1;fillColor=#fff2cc;strokeColor=#d6b656;" parent="1" vertex="1">
          <mxGeometry x="1650" y="400" width="120" height="60" as="geometry" />
        </mxCell>
        <mxCell id="q8Zk_S6X2Y8jFyI1biVI-58" value="Map API" style="shape=image;html=1;verticalAlign=top;verticalLabelPosition=bottom;labelBackgroundColor=#ffffff;imageAspect=0;aspect=fixed;image=https://cdn3.iconfinder.com/data/icons/internet-and-web-4/78/internt_web_technology-08-128.png" parent="1" vertex="1">
          <mxGeometry x="1510" y="363.5" width="62" height="62" as="geometry" />
        </mxCell>
        <mxCell id="q8Zk_S6X2Y8jFyI1biVI-59" value="" style="endArrow=classic;html=1;exitX=0;exitY=0.5;exitDx=0;exitDy=0;" parent="1" source="q8Zk_S6X2Y8jFyI1biVI-57" target="q8Zk_S6X2Y8jFyI1biVI-58" edge="1">
          <mxGeometry width="50" height="50" relative="1" as="geometry">
            <mxPoint x="1660" y="460" as="sourcePoint" />
            <mxPoint x="1710" y="410" as="targetPoint" />
          </mxGeometry>
        </mxCell>
        <mxCell id="q8Zk_S6X2Y8jFyI1biVI-61" value="Get map location and route information" style="text;html=1;strokeColor=none;fillColor=none;align=center;verticalAlign=middle;whiteSpace=wrap;rounded=0;" parent="1" vertex="1">
          <mxGeometry x="1710" y="490" width="60" height="30" as="geometry" />
        </mxCell>
        <mxCell id="q8Zk_S6X2Y8jFyI1biVI-63" value="GraphQL" style="text;html=1;strokeColor=none;fillColor=none;align=center;verticalAlign=middle;whiteSpace=wrap;rounded=0;" parent="1" vertex="1">
          <mxGeometry x="240" y="288" width="60" height="30" as="geometry" />
        </mxCell>
        <mxCell id="q8Zk_S6X2Y8jFyI1biVI-64" value="User App" style="ellipse;shape=cloud;whiteSpace=wrap;html=1;" parent="1" vertex="1">
          <mxGeometry x="1250" y="304" width="120" height="80" as="geometry" />
        </mxCell>
        <mxCell id="q8Zk_S6X2Y8jFyI1biVI-66" value="" style="endArrow=classic;html=1;edgeStyle=orthogonalEdgeStyle;entryX=0;entryY=0.5;entryDx=0;entryDy=0;entryPerimeter=0;" parent="1" source="q8Zk_S6X2Y8jFyI1biVI-64" target="q8Zk_S6X2Y8jFyI1biVI-35" edge="1">
          <mxGeometry width="50" height="50" relative="1" as="geometry">
            <mxPoint x="1380" y="393" as="sourcePoint" />
            <mxPoint x="1410" y="480" as="targetPoint" />
          </mxGeometry>
        </mxCell>
        <mxCell id="q8Zk_S6X2Y8jFyI1biVI-67" value="Get Driver Location - Web Sockets" style="text;html=1;strokeColor=none;fillColor=none;align=center;verticalAlign=middle;whiteSpace=wrap;rounded=0;" parent="1" vertex="1">
          <mxGeometry x="1390" y="294.5" width="100" height="50" as="geometry" />
        </mxCell>
        <mxCell id="rPZJrspDgpY_ZuYGKmxx-3" value="Order Creation &lt;br&gt;Queue" style="sketch=0;points=[[0,0,0],[0.25,0,0],[0.5,0,0],[0.75,0,0],[1,0,0],[0,1,0],[0.25,1,0],[0.5,1,0],[0.75,1,0],[1,1,0],[0,0.25,0],[0,0.5,0],[0,0.75,0],[1,0.25,0],[1,0.5,0],[1,0.75,0]];outlineConnect=0;fontColor=#232F3E;gradientColor=#FF4F8B;gradientDirection=north;fillColor=#BC1356;strokeColor=#ffffff;dashed=0;verticalLabelPosition=bottom;verticalAlign=top;align=center;html=1;fontSize=12;fontStyle=0;aspect=fixed;shape=mxgraph.aws4.resourceIcon;resIcon=mxgraph.aws4.mq;" parent="1" vertex="1">
          <mxGeometry x="729" y="438" width="78" height="78" as="geometry" />
        </mxCell>
        <mxCell id="rPZJrspDgpY_ZuYGKmxx-5" value="" style="endArrow=classic;html=1;rounded=0;exitX=0.925;exitY=1;exitDx=0;exitDy=0;exitPerimeter=0;edgeStyle=orthogonalEdgeStyle;entryX=0.25;entryY=0;entryDx=0;entryDy=0;entryPerimeter=0;" parent="1" source="sgyjoKGfFcgplxuwhduN-31" target="rPZJrspDgpY_ZuYGKmxx-3" edge="1">
          <mxGeometry width="50" height="50" relative="1" as="geometry">
            <mxPoint x="580" y="450" as="sourcePoint" />
            <mxPoint x="630" y="400" as="targetPoint" />
          </mxGeometry>
        </mxCell>
        <mxCell id="rPZJrspDgpY_ZuYGKmxx-6" value="" style="endArrow=classic;html=1;rounded=0;exitX=0.75;exitY=1;exitDx=0;exitDy=0;entryX=0.5;entryY=0;entryDx=0;entryDy=0;entryPerimeter=0;" parent="1" source="sgyjoKGfFcgplxuwhduN-46" target="rPZJrspDgpY_ZuYGKmxx-3" edge="1">
          <mxGeometry width="50" height="50" relative="1" as="geometry">
            <mxPoint x="580" y="450" as="sourcePoint" />
            <mxPoint x="630" y="400" as="targetPoint" />
          </mxGeometry>
        </mxCell>
        <mxCell id="rPZJrspDgpY_ZuYGKmxx-19" value="" style="endArrow=classic;html=1;rounded=0;exitX=1;exitY=0.25;exitDx=0;exitDy=0;entryX=0.5;entryY=1;entryDx=0;entryDy=0;entryPerimeter=0;edgeStyle=orthogonalEdgeStyle;" parent="1" source="q8Zk_S6X2Y8jFyI1biVI-8" target="rPZJrspDgpY_ZuYGKmxx-15" edge="1">
          <mxGeometry width="50" height="50" relative="1" as="geometry">
            <mxPoint x="910" y="600" as="sourcePoint" />
            <mxPoint x="960" y="550" as="targetPoint" />
          </mxGeometry>
        </mxCell>
        <mxCell id="rPZJrspDgpY_ZuYGKmxx-15" value="Order &lt;br&gt;Cancellation Queue" style="sketch=0;points=[[0,0,0],[0.25,0,0],[0.5,0,0],[0.75,0,0],[1,0,0],[0,1,0],[0.25,1,0],[0.5,1,0],[0.75,1,0],[1,1,0],[0,0.25,0],[0,0.5,0],[0,0.75,0],[1,0.25,0],[1,0.5,0],[1,0.75,0]];outlineConnect=0;fontColor=#232F3E;gradientColor=#FF4F8B;gradientDirection=north;fillColor=#BC1356;strokeColor=#ffffff;dashed=0;verticalLabelPosition=bottom;verticalAlign=top;align=center;html=1;fontSize=12;fontStyle=0;aspect=fixed;shape=mxgraph.aws4.resourceIcon;resIcon=mxgraph.aws4.mq;" parent="1" vertex="1">
          <mxGeometry x="868" y="437" width="78" height="78" as="geometry" />
        </mxCell>
        <mxCell id="rPZJrspDgpY_ZuYGKmxx-20" value="Add&lt;br&gt;Order" style="text;html=1;strokeColor=none;fillColor=none;align=center;verticalAlign=middle;whiteSpace=wrap;rounded=0;" parent="1" vertex="1">
          <mxGeometry x="520" y="278" width="60" height="30" as="geometry" />
        </mxCell>
        <mxCell id="TK6GQKs6KiTJpRCqTcl0-1" value="Search Index Builder Service" style="rounded=1;whiteSpace=wrap;html=1;fillColor=#f8cecc;strokeColor=#b85450;" parent="1" vertex="1">
          <mxGeometry x="-46" y="360" width="100" height="53" as="geometry" />
        </mxCell>
        <mxCell id="TK6GQKs6KiTJpRCqTcl0-2" value="" style="endArrow=classic;html=1;rounded=0;exitX=0.5;exitY=1;exitDx=0;exitDy=0;entryX=0.5;entryY=0;entryDx=0;entryDy=0;entryPerimeter=0;" parent="1" source="TK6GQKs6KiTJpRCqTcl0-1" target="sgyjoKGfFcgplxuwhduN-21" edge="1">
          <mxGeometry width="50" height="50" relative="1" as="geometry">
            <mxPoint x="20" y="400" as="sourcePoint" />
            <mxPoint x="3.2112676056340206" y="304" as="targetPoint" />
          </mxGeometry>
        </mxCell>
        <mxCell id="TK6GQKs6KiTJpRCqTcl0-3" value="" style="endArrow=classic;html=1;rounded=0;exitX=1;exitY=0.5;exitDx=0;exitDy=0;" parent="1" source="TK6GQKs6KiTJpRCqTcl0-1" target="sgyjoKGfFcgplxuwhduN-19" edge="1">
          <mxGeometry width="50" height="50" relative="1" as="geometry">
            <mxPoint x="20" y="400" as="sourcePoint" />
            <mxPoint x="70" y="350" as="targetPoint" />
          </mxGeometry>
        </mxCell>
        <mxCell id="TK6GQKs6KiTJpRCqTcl0-6" value="API Gateway ( Restaurant URLs )" style="rounded=1;whiteSpace=wrap;html=1;fillColor=#f5f5f5;fontColor=#333333;strokeColor=#666666;" parent="1" vertex="1">
          <mxGeometry x="-470" y="102" width="620" height="40" as="geometry" />
        </mxCell>
        <mxCell id="TK6GQKs6KiTJpRCqTcl0-7" value="Restaurant &lt;br&gt;App/Login" style="ellipse;shape=cloud;whiteSpace=wrap;html=1;fillColor=#dae8fc;strokeColor=#6c8ebf;" parent="1" vertex="1">
          <mxGeometry x="-260" y="-2" width="120" height="80" as="geometry" />
        </mxCell>
        <mxCell id="TK6GQKs6KiTJpRCqTcl0-8" value="" style="endArrow=classic;startArrow=classic;html=1;rounded=0;exitX=0.55;exitY=0.95;exitDx=0;exitDy=0;exitPerimeter=0;entryX=0.473;entryY=0;entryDx=0;entryDy=0;entryPerimeter=0;" parent="1" source="TK6GQKs6KiTJpRCqTcl0-7" edge="1">
          <mxGeometry width="50" height="50" relative="1" as="geometry">
            <mxPoint x="-207" y="250" as="sourcePoint" />
            <mxPoint x="-193.73999999999978" y="102" as="targetPoint" />
          </mxGeometry>
        </mxCell>
        <mxCell id="TK6GQKs6KiTJpRCqTcl0-10" value="Admin &lt;br&gt;App/Login" style="ellipse;shape=cloud;whiteSpace=wrap;html=1;fillColor=#dae8fc;strokeColor=#6c8ebf;" parent="1" vertex="1">
          <mxGeometry x="-883" width="120" height="80" as="geometry" />
        </mxCell>
        <mxCell id="TK6GQKs6KiTJpRCqTcl0-11" value="API Gateway ( Admin URLs )" style="rounded=1;whiteSpace=wrap;html=1;fillColor=#f5f5f5;fontColor=#333333;strokeColor=#666666;" parent="1" vertex="1">
          <mxGeometry x="-1120" y="105" width="620" height="40" as="geometry" />
        </mxCell>
        <mxCell id="TK6GQKs6KiTJpRCqTcl0-12" value="" style="endArrow=classic;startArrow=classic;html=1;rounded=0;entryX=0.55;entryY=0.95;entryDx=0;entryDy=0;entryPerimeter=0;exitX=0.49;exitY=0.025;exitDx=0;exitDy=0;exitPerimeter=0;" parent="1" source="TK6GQKs6KiTJpRCqTcl0-11" target="TK6GQKs6KiTJpRCqTcl0-10" edge="1">
          <mxGeometry width="50" height="50" relative="1" as="geometry">
            <mxPoint x="-620" y="250" as="sourcePoint" />
            <mxPoint x="-570" y="200" as="targetPoint" />
          </mxGeometry>
        </mxCell>
        <mxCell id="TK6GQKs6KiTJpRCqTcl0-13" value="" style="outlineConnect=0;dashed=0;verticalLabelPosition=bottom;verticalAlign=top;align=center;html=1;shape=mxgraph.aws3.redis;fillColor=#2E73B8;gradientColor=none;" parent="1" vertex="1">
          <mxGeometry x="-410" y="321" width="60" height="63" as="geometry" />
        </mxCell>
        <mxCell id="TK6GQKs6KiTJpRCqTcl0-14" value="Catalog DB" style="sketch=0;outlineConnect=0;fontColor=#232F3E;gradientColor=none;fillColor=#2E27AD;strokeColor=none;dashed=0;verticalLabelPosition=bottom;verticalAlign=top;align=center;html=1;fontSize=12;fontStyle=0;aspect=fixed;pointerEvents=1;shape=mxgraph.aws4.rds_postgresql_instance;" parent="1" vertex="1">
          <mxGeometry x="-419" y="413" width="78" height="78" as="geometry" />
        </mxCell>
        <mxCell id="TK6GQKs6KiTJpRCqTcl0-15" value="" style="endArrow=classic;html=1;rounded=0;exitX=0.5;exitY=1;exitDx=0;exitDy=0;exitPerimeter=0;" parent="1" source="TK6GQKs6KiTJpRCqTcl0-13" target="TK6GQKs6KiTJpRCqTcl0-14" edge="1">
          <mxGeometry width="50" height="50" relative="1" as="geometry">
            <mxPoint x="-206" y="386" as="sourcePoint" />
            <mxPoint x="-156" y="336" as="targetPoint" />
          </mxGeometry>
        </mxCell>
        <mxCell id="TK6GQKs6KiTJpRCqTcl0-16" value="" style="endArrow=classic;html=1;rounded=0;exitX=0.5;exitY=1;exitDx=0;exitDy=0;entryX=0.5;entryY=0;entryDx=0;entryDy=0;entryPerimeter=0;" parent="1" source="sgyjoKGfFcgplxuwhduN-15" target="TK6GQKs6KiTJpRCqTcl0-13" edge="1">
          <mxGeometry width="50" height="50" relative="1" as="geometry">
            <mxPoint x="-370" y="394" as="sourcePoint" />
            <mxPoint x="-370" y="423.098466927486" as="targetPoint" />
          </mxGeometry>
        </mxCell>
        <mxCell id="TK6GQKs6KiTJpRCqTcl0-17" value="" style="endArrow=classic;html=1;rounded=0;exitX=0.25;exitY=1;exitDx=0;exitDy=0;entryX=0.75;entryY=0;entryDx=0;entryDy=0;" parent="1" source="TK6GQKs6KiTJpRCqTcl0-6" target="sgyjoKGfFcgplxuwhduN-15" edge="1">
          <mxGeometry width="50" height="50" relative="1" as="geometry">
            <mxPoint x="250.84000000000015" y="154" as="sourcePoint" />
            <mxPoint x="-380" y="210" as="targetPoint" />
          </mxGeometry>
        </mxCell>
        <mxCell id="TK6GQKs6KiTJpRCqTcl0-18" value="/create-catalog" style="edgeLabel;html=1;align=center;verticalAlign=middle;resizable=0;points=[];" parent="TK6GQKs6KiTJpRCqTcl0-17" vertex="1" connectable="0">
          <mxGeometry x="0.1262" y="-3" relative="1" as="geometry">
            <mxPoint as="offset" />
          </mxGeometry>
        </mxCell>
        <mxCell id="TK6GQKs6KiTJpRCqTcl0-19" value="Product Service" style="rounded=1;whiteSpace=wrap;html=1;fillColor=#fff2cc;strokeColor=#d6b656;" parent="1" vertex="1">
          <mxGeometry x="-260" y="205" width="120" height="60" as="geometry" />
        </mxCell>
        <mxCell id="TK6GQKs6KiTJpRCqTcl0-20" value="" style="endArrow=classic;html=1;rounded=0;entryX=0.5;entryY=0;entryDx=0;entryDy=0;" parent="1" source="TK6GQKs6KiTJpRCqTcl0-6" target="TK6GQKs6KiTJpRCqTcl0-19" edge="1">
          <mxGeometry width="50" height="50" relative="1" as="geometry">
            <mxPoint x="-305" y="152" as="sourcePoint" />
            <mxPoint x="-340" y="215" as="targetPoint" />
          </mxGeometry>
        </mxCell>
        <mxCell id="TK6GQKs6KiTJpRCqTcl0-21" value="/product/create-update" style="edgeLabel;html=1;align=center;verticalAlign=middle;resizable=0;points=[];" parent="TK6GQKs6KiTJpRCqTcl0-20" vertex="1" connectable="0">
          <mxGeometry x="0.1262" y="-3" relative="1" as="geometry">
            <mxPoint as="offset" />
          </mxGeometry>
        </mxCell>
        <mxCell id="TK6GQKs6KiTJpRCqTcl0-22" value="" style="outlineConnect=0;dashed=0;verticalLabelPosition=bottom;verticalAlign=top;align=center;html=1;shape=mxgraph.aws3.redis;fillColor=#2E73B8;gradientColor=none;" parent="1" vertex="1">
          <mxGeometry x="-222" y="318" width="60" height="63" as="geometry" />
        </mxCell>
        <mxCell id="TK6GQKs6KiTJpRCqTcl0-23" value="Product DB" style="sketch=0;outlineConnect=0;fontColor=#232F3E;gradientColor=none;fillColor=#2E27AD;strokeColor=none;dashed=0;verticalLabelPosition=bottom;verticalAlign=top;align=center;html=1;fontSize=12;fontStyle=0;aspect=fixed;pointerEvents=1;shape=mxgraph.aws4.rds_postgresql_instance;" parent="1" vertex="1">
          <mxGeometry x="-228" y="410" width="78" height="78" as="geometry" />
        </mxCell>
        <mxCell id="TK6GQKs6KiTJpRCqTcl0-24" value="" style="endArrow=classic;html=1;rounded=0;exitX=0.5;exitY=1;exitDx=0;exitDy=0;exitPerimeter=0;" parent="1" source="TK6GQKs6KiTJpRCqTcl0-22" target="TK6GQKs6KiTJpRCqTcl0-23" edge="1">
          <mxGeometry width="50" height="50" relative="1" as="geometry">
            <mxPoint x="-5" y="383" as="sourcePoint" />
            <mxPoint x="45" y="333" as="targetPoint" />
          </mxGeometry>
        </mxCell>
        <mxCell id="TK6GQKs6KiTJpRCqTcl0-25" value="" style="endArrow=classic;html=1;rounded=0;exitX=0.575;exitY=0.983;exitDx=0;exitDy=0;entryX=0.5;entryY=0;entryDx=0;entryDy=0;entryPerimeter=0;exitPerimeter=0;" parent="1" source="TK6GQKs6KiTJpRCqTcl0-19" target="TK6GQKs6KiTJpRCqTcl0-22" edge="1">
          <mxGeometry width="50" height="50" relative="1" as="geometry">
            <mxPoint x="-370" y="275" as="sourcePoint" />
            <mxPoint x="-370" y="331" as="targetPoint" />
          </mxGeometry>
        </mxCell>
        <mxCell id="TK6GQKs6KiTJpRCqTcl0-26" value="Publish Catalog Service" style="rounded=1;whiteSpace=wrap;html=1;fillColor=#fff2cc;strokeColor=#d6b656;" parent="1" vertex="1">
          <mxGeometry x="-870" y="205" width="120" height="60" as="geometry" />
        </mxCell>
        <mxCell id="TK6GQKs6KiTJpRCqTcl0-27" value="" style="endArrow=classic;html=1;rounded=0;entryX=0.5;entryY=0;entryDx=0;entryDy=0;" parent="1" source="TK6GQKs6KiTJpRCqTcl0-11" target="TK6GQKs6KiTJpRCqTcl0-26" edge="1">
          <mxGeometry width="50" height="50" relative="1" as="geometry">
            <mxPoint x="-560" y="340" as="sourcePoint" />
            <mxPoint x="-510" y="290" as="targetPoint" />
          </mxGeometry>
        </mxCell>
        <mxCell id="TK6GQKs6KiTJpRCqTcl0-28" value="&lt;font color=&quot;#000000&quot;&gt;Catalog Topic&lt;/font&gt;" style="sketch=0;points=[[0,0,0],[0.25,0,0],[0.5,0,0],[0.75,0,0],[1,0,0],[0,1,0],[0.25,1,0],[0.5,1,0],[0.75,1,0],[1,1,0],[0,0.25,0],[0,0.5,0],[0,0.75,0],[1,0.25,0],[1,0.5,0],[1,0.75,0]];outlineConnect=0;fontColor=#232F3E;gradientColor=#945DF2;gradientDirection=north;fillColor=#5A30B5;strokeColor=#ffffff;dashed=0;verticalLabelPosition=bottom;verticalAlign=top;align=center;html=1;fontSize=12;fontStyle=0;aspect=fixed;shape=mxgraph.aws4.resourceIcon;resIcon=mxgraph.aws4.managed_streaming_for_kafka;" parent="1" vertex="1">
          <mxGeometry x="-630" y="278" width="78" height="78" as="geometry" />
        </mxCell>
        <mxCell id="TK6GQKs6KiTJpRCqTcl0-29" value="" style="endArrow=classic;html=1;rounded=0;exitX=0;exitY=0.5;exitDx=0;exitDy=0;edgeStyle=orthogonalEdgeStyle;" parent="1" source="sgyjoKGfFcgplxuwhduN-15" target="TK6GQKs6KiTJpRCqTcl0-28" edge="1">
          <mxGeometry width="50" height="50" relative="1" as="geometry">
            <mxPoint x="-440" y="310" as="sourcePoint" />
            <mxPoint x="-390" y="260" as="targetPoint" />
          </mxGeometry>
        </mxCell>
        <mxCell id="TK6GQKs6KiTJpRCqTcl0-31" value="" style="endArrow=classic;html=1;rounded=0;exitX=1;exitY=0.5;exitDx=0;exitDy=0;entryX=0;entryY=0.5;entryDx=0;entryDy=0;entryPerimeter=0;" parent="1" source="TK6GQKs6KiTJpRCqTcl0-26" target="TK6GQKs6KiTJpRCqTcl0-28" edge="1">
          <mxGeometry width="50" height="50" relative="1" as="geometry">
            <mxPoint x="-550" y="310" as="sourcePoint" />
            <mxPoint x="-500" y="260" as="targetPoint" />
          </mxGeometry>
        </mxCell>
        <mxCell id="TK6GQKs6KiTJpRCqTcl0-32" value="Push Catalog for Review" style="text;html=1;strokeColor=none;fillColor=none;align=center;verticalAlign=middle;whiteSpace=wrap;rounded=0;" parent="1" vertex="1">
          <mxGeometry x="-570" y="197" width="60" height="30" as="geometry" />
        </mxCell>
        <mxCell id="TK6GQKs6KiTJpRCqTcl0-33" value="" style="endArrow=classic;html=1;rounded=0;exitX=0.5;exitY=1;exitDx=0;exitDy=0;edgeStyle=orthogonalEdgeStyle;entryX=0.5;entryY=1;entryDx=0;entryDy=0;entryPerimeter=0;" parent="1" source="TK6GQKs6KiTJpRCqTcl0-26" target="sgyjoKGfFcgplxuwhduN-21" edge="1">
          <mxGeometry width="50" height="50" relative="1" as="geometry">
            <mxPoint x="-500" y="350" as="sourcePoint" />
            <mxPoint x="-130" y="600" as="targetPoint" />
          </mxGeometry>
        </mxCell>
        <mxCell id="TK6GQKs6KiTJpRCqTcl0-34" value="On approval, Sync Data for Catalog Browsing" style="text;html=1;strokeColor=none;fillColor=none;align=center;verticalAlign=middle;whiteSpace=wrap;rounded=0;" parent="1" vertex="1">
          <mxGeometry x="-470" y="586" width="140" height="30" as="geometry" />
        </mxCell>
        <mxCell id="TK6GQKs6KiTJpRCqTcl0-35" value="Vendor Notification Queue" style="sketch=0;points=[[0,0,0],[0.25,0,0],[0.5,0,0],[0.75,0,0],[1,0,0],[0,1,0],[0.25,1,0],[0.5,1,0],[0.75,1,0],[1,1,0],[0,0.25,0],[0,0.5,0],[0,0.75,0],[1,0.25,0],[1,0.5,0],[1,0.75,0]];outlineConnect=0;fontColor=#232F3E;gradientColor=#FF4F8B;gradientDirection=north;fillColor=#BC1356;strokeColor=#ffffff;dashed=0;verticalLabelPosition=bottom;verticalAlign=top;align=center;html=1;fontSize=12;fontStyle=0;aspect=fixed;shape=mxgraph.aws4.resourceIcon;resIcon=mxgraph.aws4.mq;" parent="1" vertex="1">
          <mxGeometry x="-876" y="640" width="78" height="78" as="geometry" />
        </mxCell>
        <mxCell id="TK6GQKs6KiTJpRCqTcl0-37" value="Vendor Notification Service" style="rounded=1;whiteSpace=wrap;html=1;fillColor=#fff2cc;strokeColor=#d6b656;" parent="1" vertex="1">
          <mxGeometry x="-640" y="650" width="120" height="60" as="geometry" />
        </mxCell>
        <mxCell id="TK6GQKs6KiTJpRCqTcl0-38" value="" style="endArrow=classic;html=1;curved=1;exitX=0;exitY=0.5;exitDx=0;exitDy=0;" parent="1" source="TK6GQKs6KiTJpRCqTcl0-37" target="TK6GQKs6KiTJpRCqTcl0-35" edge="1">
          <mxGeometry width="50" height="50" relative="1" as="geometry">
            <mxPoint x="-1016" y="424.5" as="sourcePoint" />
            <mxPoint x="-796" y="391.1202090592333" as="targetPoint" />
          </mxGeometry>
        </mxCell>
        <mxCell id="TK6GQKs6KiTJpRCqTcl0-44" value="" style="endArrow=classic;html=1;rounded=0;exitX=0.25;exitY=1;exitDx=0;exitDy=0;" parent="1" source="TK6GQKs6KiTJpRCqTcl0-26" target="TK6GQKs6KiTJpRCqTcl0-35" edge="1">
          <mxGeometry width="50" height="50" relative="1" as="geometry">
            <mxPoint x="-840" y="260" as="sourcePoint" />
            <mxPoint x="-620" y="327" as="targetPoint" />
          </mxGeometry>
        </mxCell>
        <mxCell id="TK6GQKs6KiTJpRCqTcl0-45" value="" style="endArrow=classic;html=1;rounded=0;exitX=1;exitY=0.5;exitDx=0;exitDy=0;edgeStyle=orthogonalEdgeStyle;entryX=0.003;entryY=0.411;entryDx=0;entryDy=0;entryPerimeter=0;" parent="1" source="TK6GQKs6KiTJpRCqTcl0-37" target="sgyjoKGfFcgplxuwhduN-51" edge="1">
          <mxGeometry width="50" height="50" relative="1" as="geometry">
            <mxPoint x="-640" y="630" as="sourcePoint" />
            <mxPoint x="-120" y="790" as="targetPoint" />
          </mxGeometry>
        </mxCell>
        <mxCell id="TK6GQKs6KiTJpRCqTcl0-46" value="Verify Vendor of Failed or Unpublished Catalog" style="text;html=1;strokeColor=none;fillColor=none;align=center;verticalAlign=middle;whiteSpace=wrap;rounded=0;" parent="1" vertex="1">
          <mxGeometry x="-910" y="488" width="60" height="82" as="geometry" />
        </mxCell>
        <mxCell id="x0l2c3YBYrT8gyY0AYqi-2" value="" style="endArrow=classic;html=1;rounded=0;exitX=0.5;exitY=1;exitDx=0;exitDy=0;edgeStyle=orthogonalEdgeStyle;" edge="1" parent="1" source="sgyjoKGfFcgplxuwhduN-31" target="sgyjoKGfFcgplxuwhduN-34">
          <mxGeometry width="50" height="50" relative="1" as="geometry">
            <mxPoint x="830" y="390" as="sourcePoint" />
            <mxPoint x="880" y="340" as="targetPoint" />
          </mxGeometry>
        </mxCell>
        <mxCell id="x0l2c3YBYrT8gyY0AYqi-3" value="" style="outlineConnect=0;dashed=0;verticalLabelPosition=bottom;verticalAlign=top;align=center;html=1;shape=mxgraph.aws3.redis;fillColor=#2E73B8;gradientColor=none;" vertex="1" parent="1">
          <mxGeometry x="1012" y="249.5" width="40" height="45" as="geometry" />
        </mxCell>
        <mxCell id="x0l2c3YBYrT8gyY0AYqi-5" value="" style="endArrow=classic;html=1;rounded=0;exitX=0.683;exitY=1;exitDx=0;exitDy=0;exitPerimeter=0;" edge="1" parent="1" source="sgyjoKGfFcgplxuwhduN-38" target="x0l2c3YBYrT8gyY0AYqi-3">
          <mxGeometry width="50" height="50" relative="1" as="geometry">
            <mxPoint x="780" y="330" as="sourcePoint" />
            <mxPoint x="830" y="280" as="targetPoint" />
          </mxGeometry>
        </mxCell>
        <mxCell id="x0l2c3YBYrT8gyY0AYqi-6" value="" style="endArrow=classic;html=1;rounded=0;exitX=0.5;exitY=1;exitDx=0;exitDy=0;exitPerimeter=0;edgeStyle=orthogonalEdgeStyle;" edge="1" parent="1" source="x0l2c3YBYrT8gyY0AYqi-3" target="sgyjoKGfFcgplxuwhduN-34">
          <mxGeometry width="50" height="50" relative="1" as="geometry">
            <mxPoint x="730" y="410" as="sourcePoint" />
            <mxPoint x="780" y="360" as="targetPoint" />
          </mxGeometry>
        </mxCell>
      </root>
    </mxGraphModel>
  </diagram>
</mxfile>
